<?xml version="1.0" encoding="UTF-8"?>
<!DOCTYPE svg PUBLIC "-//W3C//DTD SVG 1.1//EN" "http://www.w3.org/Graphics/SVG/1.1/DTD/svg11.dtd">
<svg xmlns="http://www.w3.org/2000/svg" version="1.1" width="512px" height="512px" style="shape-rendering:geometricPrecision; text-rendering:geometricPrecision; image-rendering:optimizeQuality; fill-rule:evenodd; clip-rule:evenodd" xmlns:xlink="http://www.w3.org/1999/xlink">
<g><path style="opacity:0.991" fill="#374266" d="M 232.5,-0.5 C 247.833,-0.5 263.167,-0.5 278.5,-0.5C 368.144,10.3879 435.644,54.7213 481,132.5C 497.695,163.971 507.861,197.304 511.5,232.5C 511.5,247.833 511.5,263.167 511.5,278.5C 509.305,300.473 504.305,321.806 496.5,342.5C 496.5,296.5 496.5,250.5 496.5,204.5C 475.5,204.5 454.5,204.5 433.5,204.5C 433.885,190.788 433.385,177.121 432,163.5C 422.267,131.041 400.434,114.041 366.5,112.5C 359.962,112.342 353.628,113.342 347.5,115.5C 347.167,115.5 346.833,115.5 346.5,115.5C 346.5,107.5 346.5,99.5 346.5,91.5C 325.833,91.5 305.167,91.5 284.5,91.5C 285.727,52.9065 267.727,28.7399 230.5,19C 219.289,17.757 208.289,18.5903 197.5,21.5C 182.129,17.5525 166.796,17.5525 151.5,21.5C 177.278,9.63893 204.278,2.3056 232.5,-0.5 Z"/></g>
<g><path style="opacity:1" fill="#c3c4de" d="M 197.5,21.5 C 184.513,26.8153 173.846,35.1487 165.5,46.5C 150.189,50.3117 140.689,59.9784 137,75.5C 136.501,80.8229 136.334,86.1563 136.5,91.5C 127.5,91.5 118.5,91.5 109.5,91.5C 108.179,58.786 122.179,35.4527 151.5,21.5C 166.796,17.5525 182.129,17.5525 197.5,21.5 Z"/></g>
<g><path style="opacity:1" fill="#f1f0f5" d="M 284.5,91.5 C 284.5,103.167 284.5,114.833 284.5,126.5C 272.116,137.602 264.116,151.268 260.5,167.5C 259.68,165.86 258.847,164.193 258,162.5C 257.5,138.836 257.333,115.169 257.5,91.5C 259.547,69.2493 250.214,54.2493 229.5,46.5C 223.013,45.346 216.346,45.1794 209.5,46C 204.99,47.4182 200.99,49.5849 197.5,52.5C 189.664,57.7993 184.497,65.1326 182,74.5C 181.501,80.1569 181.334,85.8236 181.5,91.5C 181.667,115.169 181.5,138.836 181,162.5C 175.837,172.993 168.337,175.16 158.5,169C 156.098,166.297 154.765,163.13 154.5,159.5C 154.5,136.833 154.5,114.167 154.5,91.5C 152.686,75.0888 156.353,60.0888 165.5,46.5C 173.846,35.1487 184.513,26.8153 197.5,21.5C 208.289,18.5903 219.289,17.757 230.5,19C 267.727,28.7399 285.727,52.9065 284.5,91.5 Z"/></g>
<g><path style="opacity:0.975" fill="#374266" d="M 151.5,21.5 C 122.179,35.4527 108.179,58.786 109.5,91.5C 97.8333,91.5 86.1667,91.5 74.5,91.5C 69.1667,91.5 63.8333,91.5 58.5,91.5C 83.8133,60.5081 114.813,37.1748 151.5,21.5 Z"/></g>
<g><path style="opacity:1" fill="#c3c4de" d="M 229.5,46.5 C 231.19,50.9089 233.356,55.5756 236,60.5C 239.123,70.587 240.289,80.9203 239.5,91.5C 230.5,91.5 221.5,91.5 212.5,91.5C 214.74,75.5315 209.74,62.5315 197.5,52.5C 200.99,49.5849 204.99,47.4182 209.5,46C 216.346,45.1794 223.013,45.346 229.5,46.5 Z"/></g>
<g><path style="opacity:1" fill="#394467" d="M 165.5,46.5 C 156.353,60.0888 152.686,75.0888 154.5,91.5C 148.5,91.5 142.5,91.5 136.5,91.5C 136.334,86.1563 136.501,80.8229 137,75.5C 140.689,59.9784 150.189,50.3117 165.5,46.5 Z"/></g>
<g><path style="opacity:1" fill="#394467" d="M 229.5,46.5 C 250.214,54.2493 259.547,69.2493 257.5,91.5C 251.5,91.5 245.5,91.5 239.5,91.5C 240.289,80.9203 239.123,70.587 236,60.5C 233.356,55.5756 231.19,50.9089 229.5,46.5 Z"/></g>
<g><path style="opacity:1" fill="#384367" d="M 197.5,52.5 C 209.74,62.5315 214.74,75.5315 212.5,91.5C 202.167,91.5 191.833,91.5 181.5,91.5C 181.334,85.8236 181.501,80.1569 182,74.5C 184.497,65.1326 189.664,57.7993 197.5,52.5 Z"/></g>
<g><path style="opacity:1" fill="#e83150" d="M 58.5,91.5 C 63.8333,91.5 69.1667,91.5 74.5,91.5C 74.5,91.8333 74.5,92.1667 74.5,92.5C 74.8328,207.001 74.4995,321.335 73.5,435.5C 51.9294,414.39 34.7628,390.057 22,362.5C 19.6641,357.657 17.8308,352.657 16.5,347.5C 16.5,286.167 16.5,224.833 16.5,163.5C 16.5,139.5 16.5,115.5 16.5,91.5C 30.5,91.5 44.5,91.5 58.5,91.5 Z"/></g>
<g><path style="opacity:1" fill="#fe526c" d="M 181.5,91.5 C 191.833,91.5 202.167,91.5 212.5,91.5C 221.5,91.5 230.5,91.5 239.5,91.5C 245.5,91.5 251.5,91.5 257.5,91.5C 257.333,115.169 257.5,138.836 258,162.5C 258.847,164.193 259.68,165.86 260.5,167.5C 260.5,179.833 260.5,192.167 260.5,204.5C 248.5,204.5 236.5,204.5 224.5,204.5C 205.5,204.5 186.5,204.5 167.5,204.5C 166.833,301.5 166.167,398.5 165.5,495.5C 130.144,482.501 99.4773,462.501 73.5,435.5C 74.4995,321.335 74.8328,207.001 74.5,92.5C 100.833,92.5 127.167,92.5 153.5,92.5C 153.169,115.006 153.503,137.34 154.5,159.5C 154.765,163.13 156.098,166.297 158.5,169C 168.337,175.16 175.837,172.993 181,162.5C 181.5,138.836 181.667,115.169 181.5,91.5 Z"/></g>
<g><path style="opacity:1" fill="#f7627b" d="M 74.5,92.5 C 74.5,92.1667 74.5,91.8333 74.5,91.5C 86.1667,91.5 97.8333,91.5 109.5,91.5C 118.5,91.5 127.5,91.5 136.5,91.5C 142.5,91.5 148.5,91.5 154.5,91.5C 154.5,114.167 154.5,136.833 154.5,159.5C 153.503,137.34 153.169,115.006 153.5,92.5C 127.167,92.5 100.833,92.5 74.5,92.5 Z"/></g>
<g><path style="opacity:1" fill="#fd526c" d="M 284.5,91.5 C 305.167,91.5 325.833,91.5 346.5,91.5C 346.5,99.5 346.5,107.5 346.5,115.5C 323.878,108.721 303.212,112.387 284.5,126.5C 284.5,114.833 284.5,103.167 284.5,91.5 Z"/></g>
<g><path style="opacity:1" fill="#c5c5df" d="M 346.5,115.5 C 346.833,115.5 347.167,115.5 347.5,115.5C 333.194,120.811 321.861,129.811 313.5,142.5C 313.44,141.957 313.107,141.624 312.5,141.5C 300.867,145.756 293.034,153.756 289,165.5C 287.557,178.426 287.057,191.426 287.5,204.5C 278.5,204.5 269.5,204.5 260.5,204.5C 260.5,192.167 260.5,179.833 260.5,167.5C 264.116,151.268 272.116,137.602 284.5,126.5C 303.212,112.387 323.878,108.721 346.5,115.5 Z"/></g>
<g><path style="opacity:1" fill="#f1f1f5" d="M 433.5,204.5 C 433.667,221.837 433.5,239.17 433,256.5C 428.395,266.368 421.228,268.868 411.5,264C 409.106,262.048 407.606,259.548 407,256.5C 406.5,239.17 406.333,221.837 406.5,204.5C 406.667,193.495 406.5,182.495 406,171.5C 402.856,156.841 394.356,146.841 380.5,141.5C 373.733,139.683 366.733,139.183 359.5,140C 354.547,141.143 350.214,143.31 346.5,146.5C 338.918,151.601 333.751,158.601 331,167.5C 329.606,179.78 329.106,192.114 329.5,204.5C 329.667,222.17 329.5,239.836 329,257.5C 324.969,266.07 318.469,268.57 309.5,265C 306.865,263.039 305.031,260.539 304,257.5C 303.5,239.836 303.333,222.17 303.5,204.5C 303.333,191.829 303.5,179.162 304,166.5C 305.261,157.659 308.428,149.659 313.5,142.5C 321.861,129.811 333.194,120.811 347.5,115.5C 353.628,113.342 359.962,112.342 366.5,112.5C 400.434,114.041 422.267,131.041 432,163.5C 433.385,177.121 433.885,190.788 433.5,204.5 Z"/></g>
<g><path style="opacity:1" fill="#c4c5df" d="M 380.5,141.5 C 382.19,145.909 384.356,150.576 387,155.5C 388,159.5 389,163.5 390,167.5C 390.5,179.829 390.667,192.162 390.5,204.5C 381.5,204.5 372.5,204.5 363.5,204.5C 363.667,192.829 363.5,181.162 363,169.5C 360.318,159.675 354.818,152.009 346.5,146.5C 350.214,143.31 354.547,141.143 359.5,140C 366.733,139.183 373.733,139.683 380.5,141.5 Z"/></g>
<g><path style="opacity:1" fill="#fe566f" d="M 313.5,142.5 C 308.428,149.659 305.261,157.659 304,166.5C 303.5,179.162 303.333,191.829 303.5,204.5C 298.167,204.5 292.833,204.5 287.5,204.5C 287.057,191.426 287.557,178.426 289,165.5C 293.034,153.756 300.867,145.756 312.5,141.5C 313.107,141.624 313.44,141.957 313.5,142.5 Z"/></g>
<g><path style="opacity:1" fill="#3a4568" d="M 380.5,141.5 C 394.356,146.841 402.856,156.841 406,171.5C 406.5,182.495 406.667,193.495 406.5,204.5C 401.167,204.5 395.833,204.5 390.5,204.5C 390.667,192.162 390.5,179.829 390,167.5C 389,163.5 388,159.5 387,155.5C 384.356,150.576 382.19,145.909 380.5,141.5 Z"/></g>
<g><path style="opacity:1" fill="#374266" d="M 346.5,146.5 C 354.818,152.009 360.318,159.675 363,169.5C 363.5,181.162 363.667,192.829 363.5,204.5C 357.833,204.5 352.167,204.5 346.5,204.5C 346.5,185.167 346.5,165.833 346.5,146.5 Z"/></g>
<g><path style="opacity:1" fill="#fc566e" d="M 346.5,146.5 C 346.5,165.833 346.5,185.167 346.5,204.5C 340.833,204.5 335.167,204.5 329.5,204.5C 329.106,192.114 329.606,179.78 331,167.5C 333.751,158.601 338.918,151.601 346.5,146.5 Z"/></g>
<g><path style="opacity:0.971" fill="#364165" d="M 16.5,163.5 C 16.5,224.833 16.5,286.167 16.5,347.5C 7.53274,325.298 1.86607,302.298 -0.5,278.5C -0.5,263.167 -0.5,247.833 -0.5,232.5C 1.21287,220.23 3.37954,207.897 6,195.5C 8.43427,184.365 11.9343,173.699 16.5,163.5 Z"/></g>
<g><path style="opacity:1" fill="#f9904b" d="M 167.5,204.5 C 167.5,301.833 167.5,399.167 167.5,496.5C 166.508,496.672 165.842,496.338 165.5,495.5C 166.167,398.5 166.833,301.5 167.5,204.5 Z"/></g>
<g><path style="opacity:1" fill="#f48d2c" d="M 167.5,204.5 C 186.5,204.5 205.5,204.5 224.5,204.5C 224.5,306.167 224.5,407.833 224.5,509.5C 227.059,509.198 229.393,509.532 231.5,510.5C 209.462,508.99 188.129,504.323 167.5,496.5C 167.5,399.167 167.5,301.833 167.5,204.5 Z"/></g>
<g><path style="opacity:1" fill="#fee161" d="M 224.5,204.5 C 236.5,204.5 248.5,204.5 260.5,204.5C 269.5,204.5 278.5,204.5 287.5,204.5C 292.833,204.5 298.167,204.5 303.5,204.5C 303.333,222.17 303.5,239.836 304,257.5C 305.031,260.539 306.865,263.039 309.5,265C 318.469,268.57 324.969,266.07 329,257.5C 329.5,239.836 329.667,222.17 329.5,204.5C 335.167,204.5 340.833,204.5 346.5,204.5C 352.167,204.5 357.833,204.5 363.5,204.5C 372.5,204.5 381.5,204.5 390.5,204.5C 395.833,204.5 401.167,204.5 406.5,204.5C 406.333,221.837 406.5,239.17 407,256.5C 407.606,259.548 409.106,262.048 411.5,264C 421.228,268.868 428.395,266.368 433,256.5C 433.5,239.17 433.667,221.837 433.5,204.5C 454.5,204.5 475.5,204.5 496.5,204.5C 496.5,250.5 496.5,296.5 496.5,342.5C 473.939,402.899 434.606,449.066 378.5,481C 347.032,497.694 313.698,507.861 278.5,511.5C 263.167,511.5 247.833,511.5 232.5,511.5C 232.5,510.833 232.167,510.5 231.5,510.5C 229.393,509.532 227.059,509.198 224.5,509.5C 224.5,407.833 224.5,306.167 224.5,204.5 Z"/></g>
</svg>
